<svg width="100%" height="100%" viewBox="0 0 63 31">
<path d="M38.3,26c-1.7,2.3-4.4,3.6-7.4,3.6c-2.6,0-4.5-0.8-7.5-3.2c-3.8,2.2-7.1,3.2-11,3.2c-6.1,0-10.8-2.2-10.8-6.5
	c0-3.3,2.8-6.5,12.3-9.4c-0.7-1.6-1.1-3-1.1-5.1c0-4.2,2.6-7.8,6.6-7.8c3.1,0,5.4,2.3,5.4,5.5c0,2.7-1.4,4.4-4.8,5.8l0.9,1.1
	c2.3,2.8,4.5,5.6,6.9,8.2c1.9-1.9,3.6-5,3.6-6.7c0-2.1-1.7-3.4-4.3-3.4h-1v-0.7h13.4v0.7c-4.2,0.2-5.8,2.8-7.4,5.5
	c-1.6,2.7-1.8,3-3.6,5.2c2.6,2.9,4.5,4.1,6.5,4.1c1.6,0,2.8-1.1,3.4-2.1c0.7-1.1,1.1-2.3,1.2-4.9h0.7C40.1,22.6,39.6,24.2,38.3,26z
	 M14.4,14.5C11.7,15.4,8,16.7,8,20.7c0,2.1,1.4,7.6,7.7,7.6c2.8,0,4.5-0.9,6.4-1.9l0.7-0.4C20.8,23.9,16.6,19.2,14.4,14.5z
	 M18.8,1.7c-1.7,0-2.8,1.5-2.8,2.9c0,1.4,0.6,2.8,2.9,5.9l0.8,1.1c1.9-0.8,3.2-1.8,3.2-3.6C22.8,5.6,21,1.7,18.8,1.7z"/>
<path d="M52.5,29.7c-5.7,0-10.5-4.3-10.5-9.5c0-3.7,3.2-9.4,9.7-9.4c4.1,0,5.1,2.2,6.2,2.2c0.6,0,1.3-0.6,2.3-1.9h0.5l0.4,8.7h-0.4
	c-0.3-1.3-0.5-1.9-1-2.8c-1.5-3.1-4.3-5.8-7.8-5.8c-4.2,0-5.2,3.9-5.2,9.1c0,6.1,1.9,8.8,6.1,8.8c3.5,0,7-2.1,8.1-6.3h0.5
	C60.3,27,56.9,29.7,52.5,29.7z"/>
</svg>
