<svg viewBox="0 0 401.3 31">
	<g>
		<path d="M1.7,29.8V29h0.8c3.1,0,5.3-1.3,5.3-5.3V6.9c0-3.8-1.8-5.3-5.3-5.3H1.7V0.8h30.8V12h-0.8C29.8,4.6,27.2,1.6,19.5,1.6h-5.7
			v13.7h1.5c4.7,0,6.7-3.8,7.4-9.2h0.8v19h-0.8c-0.6-3.5-1.6-9-7.7-9h-1.2V29h4.8c9.4,0,12-4.7,13.9-11.2h0.8v11.9H1.7z"/>
		<path d="M70,15.5C69.4,8.7,65.6,1.6,58.4,1.6h-1.6v22.1c0,3.6,1.7,5.3,5.3,5.3h4.3v0.8H41.1V29h4.3c3.5,0,5.3-1.7,5.3-5.3V1.6h-1.6
			c-7.2,0-11,7.1-11.6,13.9h-0.8V0.8h34v14.7H70z"/>
		<path d="M92,30.4c-9,0-16.6-6.9-16.6-15.1c0-5.9,5.1-14.9,15.4-14.9c6.6,0,8.1,3.6,9.9,3.6c1,0,2.1-0.9,3.7-3.1h0.7l0.6,13.9H105
			c-0.5-2.1-0.8-3-1.5-4.5c-2.5-4.9-6.8-9.2-12.3-9.2c-6.7,0-8.3,6.2-8.3,14.5c0,9.7,3,14,9.7,14c5.5,0,11.1-3.4,12.8-10h0.7
			C104.4,26.1,99,30.4,92,30.4z"/>
		<path d="M117.1,30.4c-1.9,0-3.4-1.5-3.4-3.4c0-1.8,1.5-3.4,3.3-3.4c2,0,3.5,1.5,3.5,3.4C120.5,28.8,119,30.4,117.1,30.4z"/>
		<path d="M180.5,17.5c-3.6,0-5.3,1.7-5.3,5.3v6.8h-0.8c-1.2-1.1-2-1.4-3.4-1.4c-1.2,0-2,0.2-3.9,0.9c-2.7,1.1-4.3,1.4-6.8,1.4
			c-9.9,0-17.1-6.3-17.1-14.8c0-9.5,8.7-15.2,16.2-15.2c2.8,0,5.5,0.7,8.7,2.3c1.3,0.6,2.1,0.9,2.6,0.9c1,0,1.9-0.7,3.1-2.5h0.8
			l0.2,12.5h-0.8c-1-3-1.7-4.5-2.6-6c-2.3-3.5-6.6-6.4-11.4-6.4c-5.3,0-9.4,3.6-9.4,14.9c0,6.8,1.8,13.6,10.1,13.6
			c4.5,0,8.4-1.9,8.4-5.4v-1.5c0-3.5-1.7-5.3-5.3-5.3h-2.5v-0.8h19.8v0.8H180.5z"/>
		<path d="M199.3,29.8V29h2.2c2.5,0,3.2-1,3.2-1.9c0-0.5-0.2-0.9-0.4-1.4l-2.2-5h-12.3l-1.1,2.5c-1,2.3,0.2,5.7,3.9,5.7v0.8h-11.8V29
			c3.1-0.3,5.5-2.4,7.3-6.5l9.9-22.2h0.8l11.6,25.2c1.1,2.4,2.5,3.4,4.9,3.4h0.8v0.8H199.3z M195.9,7.1l-5.7,12.8h11.5L195.9,7.1z"/>
		<path d="M218.4,29.8V29h1c3.6,0,5.3-1.7,5.3-5.3V6.9c0-3.5-1.7-5.3-5.3-5.3h-1V0.8h19.7v0.8H236c-3.6,0-5.3,1.7-5.3,5.3V29h7.5
			c7.7,0,10.5-8.4,11.6-12h0.8v12.8H218.4z"/>
		<path d="M253.3,29.8V29h1c3.6,0,5.3-1.7,5.3-5.3V6.9c0-3.5-1.7-5.3-5.3-5.3h-1V0.8H273v0.8h-2.1c-3.6,0-5.3,1.7-5.3,5.3V29h7.5
			c7.7,0,10.5-8.4,11.6-12h0.8v12.8H253.3z"/>
		<path d="M288.3,29.8V29h0.8c3.1,0,5.3-1.3,5.3-5.3V6.9c0-3.8-1.8-5.3-5.3-5.3h-0.8V0.8h30.8V12h-0.8c-1.9-7.5-4.5-10.4-12.2-10.4
			h-5.7v13.7h1.5c4.7,0,6.7-3.8,7.4-9.2h0.8v19h-0.8c-0.6-3.5-1.6-9-7.7-9h-1.2V29h4.8c9.4,0,12-4.7,13.9-11.2h0.8v11.9H288.3z"/>
		<path d="M352.7,29.8l-10-14.2h-6.5v8.1c0,3.6,1.7,5.3,5.3,5.3h0.8v0.8H324V29h0.8c3.6,0,5.3-1.7,5.3-5.3V6.9c0-3.6-1.7-5.3-5.3-5.3
			H324V0.8h23.5c8.3,0,12.3,2.8,12.3,7.2c0,7.5-11.5,7.5-16.2,7.5c3.3,2.2,5.5,3.2,8.8,3.9l0.7,1c0.8,1.1,1.4,2,1.8,2.6
			c3.2,4.8,4.3,5.8,7.8,5.8h0.8v0.8H352.7z M344.6,1.6h-8.4v13.2h8.4c5.6,0,8.4-1.9,8.4-6.7C353,3.9,350.5,1.6,344.6,1.6z"/>
		<path d="M391.4,7.1l-7.3,9.6v7c0,3.6,1.7,5.3,5.3,5.3h2v0.8h-20.6V29h2c3.6,0,5.3-1.7,5.3-5.3v-6.2l-8.7-11.8c-2.7-3.7-4.8-4-7.9-4
			V0.8H380v0.8h-2.2c-1.7,0-2.7,0.7-2.7,1.8c0,0.6,0.2,0.8,1.4,2.6l7.2,9.9l6.4-8.5c0.9-1.2,1.3-2,1.3-2.8c0-1.8-1.7-3-4.1-3h-1.9
			V0.8h14.9v0.8C396.6,2,394.2,3.4,391.4,7.1z"/>
	</g>
</svg>
